<svg width="16" height="29" viewBox="0 0 16 29" fill="none" xmlns="http://www.w3.org/2000/svg">
<path d="M10.0795 0.660034V7.22004H14.7995V8.02003H10.0795V24.18C10.0795 24.98 10.2261 25.5534 10.5195 25.9C10.8128 26.22 11.2528 26.38 11.8395 26.38C12.3195 26.38 12.7995 26.2067 13.2795 25.86C13.7595 25.4867 14.1861 24.86 14.5595 23.98L15.2395 24.34C14.8128 25.54 14.1595 26.5267 13.2795 27.3C12.4261 28.0734 11.2528 28.46 9.75947 28.46C8.87947 28.46 8.10614 28.34 7.43947 28.1C6.77281 27.8867 6.21281 27.5534 5.75947 27.1C5.17281 26.5134 4.78614 25.7934 4.59947 24.94C4.41281 24.06 4.31947 22.9267 4.31947 21.54V8.02003H0.959473V7.22004H4.31947V1.94003C5.43947 1.94003 6.46614 1.8467 7.39947 1.66004C8.35947 1.4467 9.25281 1.11337 10.0795 0.660034Z" fill="#1E293B"/>
</svg>
