<svg width="308" height="40" viewBox="0 0 308 40" fill="none" xmlns="http://www.w3.org/2000/svg">
<path d="M292.641 31.34C292.854 31.4467 293.067 31.5267 293.281 31.58C293.521 31.6067 293.774 31.62 294.041 31.62C294.867 31.62 295.547 31.3533 296.081 30.82C296.641 30.26 296.921 29.5134 296.921 28.58C296.921 27.6734 296.707 26.7267 296.281 25.74C295.854 24.7534 295.294 23.7134 294.601 22.62C293.961 21.58 293.401 20.6067 292.921 19.7C292.441 18.7667 292.201 17.74 292.201 16.62C292.201 15.4734 292.494 14.4467 293.081 13.54C293.667 12.6334 294.547 11.9134 295.721 11.38C296.894 10.8467 298.374 10.58 300.161 10.58C301.281 10.58 302.361 10.7134 303.401 10.98C304.467 11.2467 305.334 11.7134 306.001 12.38C306.694 13.02 307.041 13.9534 307.041 15.18C307.041 15.7134 306.934 16.26 306.721 16.82C306.507 17.38 306.187 17.8467 305.761 18.22C305.361 18.5667 304.841 18.74 304.201 18.74C303.401 18.74 302.774 18.4334 302.321 17.82C301.867 17.18 301.641 16.3667 301.641 15.38C301.641 14.5267 301.774 13.7667 302.041 13.1C302.334 12.4334 302.627 11.94 302.921 11.62C302.707 11.5134 302.374 11.46 301.921 11.46C300.987 11.46 300.281 11.7267 299.801 12.26C299.347 12.7934 299.107 13.5667 299.081 14.58C299.081 15.1667 299.187 15.7667 299.401 16.38C299.641 16.9667 299.947 17.5667 300.321 18.18C300.694 18.7667 301.067 19.38 301.441 20.02C302.321 21.5134 302.934 22.74 303.281 23.7C303.654 24.6334 303.841 25.5534 303.841 26.46C303.841 27.5534 303.534 28.5534 302.921 29.46C302.334 30.3667 301.441 31.1 300.241 31.66C299.067 32.1933 297.601 32.46 295.841 32.46C294.587 32.46 293.387 32.3 292.241 31.98C291.121 31.6867 290.201 31.1667 289.481 30.42C288.787 29.6734 288.441 28.6467 288.441 27.34C288.441 26.3534 288.694 25.5134 289.201 24.82C289.681 24.1267 290.334 23.78 291.161 23.78C291.934 23.78 292.561 24.1 293.041 24.74C293.521 25.38 293.761 26.2334 293.761 27.3C293.761 28.1534 293.614 28.94 293.321 29.66C293.054 30.38 292.827 30.94 292.641 31.34Z" fill="#008B8B"/>
<path d="M274.209 30.1C273.463 30.7934 272.556 31.3667 271.489 31.82C270.449 32.2467 269.183 32.46 267.689 32.46C266.489 32.46 265.463 32.2334 264.609 31.78C263.783 31.3267 263.143 30.7134 262.689 29.94C262.263 29.1667 262.049 28.3 262.049 27.34C262.049 26.1134 262.396 24.9267 263.089 23.78C263.783 22.6334 264.756 21.4734 266.009 20.3C267.289 19.1 268.809 17.8334 270.569 16.5C272.329 15.1667 274.263 13.7 276.369 12.1L276.249 12.3C275.263 12.3 274.409 12.4867 273.689 12.86C272.969 13.2334 272.329 13.6734 271.769 14.18C271.236 14.66 270.716 15.0867 270.209 15.46C269.703 15.8334 269.143 16.02 268.529 16.02C268.023 16.02 267.623 15.9267 267.329 15.74C267.036 15.5267 266.703 15.42 266.329 15.42C265.983 15.42 265.716 15.54 265.529 15.78C265.369 16.02 265.196 16.4067 265.009 16.94L264.729 17.78H263.969L264.849 14.86C265.356 13.18 265.943 12.0867 266.609 11.58C267.303 11.0467 267.996 10.78 268.689 10.78C269.223 10.78 269.703 10.86 270.129 11.02C270.583 11.1534 271.089 11.3 271.649 11.46C272.209 11.62 272.943 11.7 273.849 11.7C274.143 11.7 274.543 11.6734 275.049 11.62C275.583 11.54 276.169 11.3667 276.809 11.1L277.209 10.34L278.049 10.74C276.823 12.18 275.689 13.6734 274.649 15.22C273.636 16.7667 272.756 18.3 272.009 19.82C271.263 21.34 270.676 22.78 270.249 24.14C269.849 25.5 269.649 26.7267 269.649 27.82C269.649 28.5934 269.783 29.2067 270.049 29.66C270.316 30.1134 270.809 30.34 271.529 30.34C271.929 30.34 272.329 30.2734 272.729 30.14C273.129 30.0067 273.503 29.82 273.849 29.58L274.209 30.1ZM281.569 29.14C282.236 29.14 282.836 28.9667 283.369 28.62C283.903 28.2734 284.369 27.8067 284.769 27.22C285.196 26.6067 285.543 25.9 285.809 25.1C286.076 24.3 286.289 23.4467 286.449 22.54C286.609 21.6067 286.703 20.6467 286.729 19.66C285.823 19.2334 284.889 18.74 283.929 18.18C282.969 17.62 282.156 16.94 281.489 16.14C280.849 15.3134 280.529 14.3267 280.529 13.18C280.529 12.62 280.743 12.0467 281.169 11.46C281.596 10.8734 282.303 10.58 283.289 10.58C284.169 10.58 284.889 10.8867 285.449 11.5C286.009 12.0867 286.436 12.8334 286.729 13.74C287.049 14.6467 287.263 15.58 287.369 16.54C287.503 17.4734 287.569 18.3 287.569 19.02C287.569 20.3267 287.436 21.6334 287.169 22.94C286.929 24.2467 286.556 25.4734 286.049 26.62C285.569 27.74 284.969 28.74 284.249 29.62C283.529 30.5 282.689 31.1934 281.729 31.7C280.796 32.2067 279.743 32.46 278.569 32.46C277.663 32.46 276.769 32.3 275.889 31.98C275.009 31.66 274.289 31.1 273.729 30.3C273.169 29.5 272.889 28.3934 272.889 26.98C272.889 25.7267 273.116 24.54 273.569 23.42C274.023 22.2734 274.596 21.26 275.289 20.38C275.983 19.5 276.716 18.8067 277.489 18.3C278.289 17.7934 279.023 17.54 279.689 17.54C280.196 17.54 280.556 17.6867 280.769 17.98C281.009 18.2734 281.156 18.62 281.209 19.02C281.289 19.42 281.329 19.7667 281.329 20.06C281.329 21.7934 280.956 23.46 280.209 25.06C279.489 26.66 278.423 28.1 277.009 29.38L276.729 28.7C277.849 27.6067 278.743 26.3134 279.409 24.82C280.076 23.3 280.409 21.7934 280.409 20.3C280.409 19.74 280.356 19.2867 280.249 18.94C280.143 18.5934 279.983 18.42 279.769 18.42C279.449 18.42 279.143 18.7267 278.849 19.34C278.556 19.9534 278.316 20.74 278.129 21.7C277.943 22.66 277.849 23.6867 277.849 24.78C277.849 25.6334 277.983 26.3934 278.249 27.06C278.543 27.7 278.969 28.2067 279.529 28.58C280.089 28.9534 280.769 29.14 281.569 29.14Z" fill="#008B8B"/>
<path d="M248.886 23.5C249.739 23.1 250.579 22.62 251.406 22.06C252.232 21.5 252.992 20.8867 253.686 20.22C254.752 19.18 255.619 17.9934 256.286 16.66C256.979 15.3267 257.326 13.8867 257.326 12.34C257.326 11.9667 257.272 11.7134 257.166 11.58C257.059 11.42 256.899 11.34 256.686 11.34C256.152 11.34 255.566 11.6467 254.926 12.26C254.312 12.8467 253.699 13.6467 253.086 14.66C252.472 15.6467 251.912 16.7667 251.406 18.02C250.926 19.2734 250.526 20.5667 250.206 21.9C249.912 23.2067 249.766 24.4734 249.766 25.7C249.766 27.2467 250.072 28.2867 250.686 28.82C251.299 29.3267 252.099 29.58 253.086 29.58C253.619 29.58 254.419 29.38 255.486 28.98C256.552 28.58 257.619 27.8467 258.686 26.78L259.326 27.1C258.739 27.98 257.966 28.8334 257.006 29.66C256.046 30.4867 254.912 31.1667 253.606 31.7C252.299 32.2067 250.832 32.46 249.206 32.46C247.952 32.46 246.792 32.2467 245.726 31.82C244.686 31.3934 243.846 30.7667 243.206 29.94C242.592 29.0867 242.286 28.0467 242.286 26.82C242.286 25.2467 242.526 23.6867 243.006 22.14C243.512 20.5934 244.219 19.1267 245.126 17.74C246.032 16.3534 247.112 15.1267 248.366 14.06C249.646 12.9667 251.059 12.1134 252.606 11.5C254.152 10.8867 255.806 10.58 257.566 10.58C258.979 10.58 260.152 10.8733 261.086 11.46C262.046 12.02 262.526 12.9 262.526 14.1C262.526 15.1134 262.259 16.0734 261.726 16.98C261.192 17.86 260.459 18.6734 259.526 19.42C258.592 20.14 257.539 20.7934 256.366 21.38C255.192 21.9667 253.952 22.4734 252.646 22.9C251.366 23.3267 250.099 23.66 248.846 23.9L248.886 23.5Z" fill="#008B8B"/>
<path d="M224.84 31.9H217.76L222.64 14.54C222.773 14.1134 222.853 13.78 222.88 13.54C222.907 13.3 222.867 13.1267 222.76 13.02C222.68 12.9134 222.52 12.86 222.28 12.86C221.88 12.86 221.507 13.0467 221.16 13.42C220.813 13.7667 220.453 14.42 220.08 15.38L219.16 17.82H218.4L219.52 14.7C220.027 13.2867 220.72 12.2467 221.6 11.58C222.48 10.9134 223.613 10.58 225 10.58C226.04 10.58 226.867 10.7534 227.48 11.1C228.093 11.42 228.533 11.86 228.8 12.42C229.067 12.98 229.2 13.5934 229.2 14.26C229.2 14.9 229.12 15.54 228.96 16.18L224.84 31.9ZM225.76 26.18C226.853 22.9267 227.853 20.2867 228.76 18.26C229.693 16.2067 230.587 14.62 231.44 13.5C232.32 12.38 233.213 11.62 234.12 11.22C235.053 10.7934 236.053 10.58 237.12 10.58C238.453 10.58 239.427 10.8467 240.04 11.38C240.653 11.9134 240.973 12.6467 241 13.58C241.053 14.4867 240.893 15.5 240.52 16.62L236.56 28.5C236.293 29.2467 236.253 29.7134 236.44 29.9C236.653 30.0867 236.853 30.18 237.04 30.18C237.28 30.18 237.587 30.0467 237.96 29.78C238.333 29.4867 238.733 28.78 239.16 27.66L240 25.42H240.76L239.76 28.34C239.387 29.46 238.88 30.3134 238.24 30.9C237.627 31.4867 236.947 31.8867 236.2 32.1C235.48 32.34 234.76 32.46 234.04 32.46C233.213 32.46 232.493 32.34 231.88 32.1C231.267 31.86 230.787 31.5 230.44 31.02C230.04 30.46 229.813 29.7667 229.76 28.94C229.733 28.0867 229.947 26.9667 230.4 25.58L233.84 15.22C234 14.74 234.093 14.34 234.12 14.02C234.173 13.7 234.173 13.46 234.12 13.3C234.067 13.14 233.947 13.06 233.76 13.06C233.333 13.06 232.827 13.42 232.24 14.14C231.653 14.86 231.027 15.8467 230.36 17.1C229.72 18.3534 229.067 19.7934 228.4 21.42C227.733 23.02 227.093 24.7134 226.48 26.5C225.867 28.26 225.333 30.02 224.88 31.78L225.76 26.18Z" fill="#008B8B"/>
<path d="M216.432 3.02002L205.552 32.46H204.232L215.112 3.02002H216.432Z" fill="#008B8B"/>
<path d="M202.769 11.22V12.02C202.263 12.1534 201.783 12.4734 201.329 12.98C200.876 13.46 200.436 14.2867 200.009 15.46L194.369 31.3L192.889 34.1L184.169 14.3C183.716 13.26 183.263 12.6334 182.809 12.42C182.383 12.18 182.009 12.06 181.689 12.06V11.22C182.569 11.3 183.476 11.3667 184.409 11.42C185.369 11.4467 186.289 11.46 187.169 11.46C188.263 11.46 189.263 11.4334 190.169 11.38C191.076 11.3267 191.929 11.2734 192.729 11.22V12.06C192.196 12.06 191.689 12.1 191.209 12.18C190.756 12.2334 190.436 12.42 190.249 12.74C190.089 13.0334 190.169 13.5534 190.489 14.3L195.529 26.46L195.169 26.7L198.129 18.42C198.636 16.98 198.849 15.8067 198.769 14.9C198.689 13.9667 198.396 13.2734 197.889 12.82C197.383 12.34 196.689 12.0734 195.809 12.02V11.22C196.236 11.2467 196.676 11.2734 197.129 11.3C197.583 11.3 198.036 11.3134 198.489 11.34C198.943 11.34 199.343 11.34 199.689 11.34C200.223 11.34 200.783 11.3267 201.369 11.3C201.956 11.2734 202.423 11.2467 202.769 11.22ZM194.369 31.3L192.849 35.58C192.583 36.2467 192.303 36.8067 192.009 37.26C191.743 37.74 191.436 38.1267 191.089 38.42C190.716 38.74 190.236 38.98 189.649 39.14C189.063 39.3267 188.383 39.42 187.609 39.42C186.969 39.42 186.303 39.3134 185.609 39.1C184.943 38.8867 184.383 38.54 183.929 38.06C183.476 37.58 183.249 36.9667 183.249 36.22C183.249 35.3934 183.543 34.7267 184.129 34.22C184.716 33.74 185.489 33.5 186.449 33.5C187.329 33.5 188.049 33.7134 188.609 34.14C189.169 34.5667 189.449 35.1934 189.449 36.02C189.449 36.5534 189.276 37.06 188.929 37.54C188.609 38.02 188.116 38.38 187.449 38.62C187.583 38.6467 187.743 38.66 187.929 38.66C188.116 38.66 188.263 38.66 188.369 38.66C189.169 38.66 189.876 38.4067 190.489 37.9C191.103 37.3934 191.609 36.5934 192.009 35.5L193.409 31.38L194.369 31.3Z" fill="#1E293B"/>
<path d="M169.407 39.42C167.754 39.42 166.274 39.2733 164.967 38.98C163.687 38.7133 162.674 38.2867 161.927 37.7C161.207 37.14 160.847 36.4467 160.847 35.62C160.847 34.7933 161.22 34.0467 161.967 33.38C162.714 32.74 163.82 32.2333 165.287 31.86L165.647 32.5C165.14 32.9 164.767 33.3267 164.527 33.78C164.314 34.26 164.207 34.7533 164.207 35.26C164.207 36.38 164.714 37.2333 165.727 37.82C166.767 38.4333 168.167 38.74 169.927 38.74C171.127 38.74 172.194 38.58 173.127 38.26C174.087 37.94 174.834 37.46 175.367 36.82C175.927 36.18 176.207 35.3933 176.207 34.46C176.207 33.66 175.914 32.98 175.327 32.42C174.74 31.8867 173.567 31.62 171.807 31.62H169.327C168.234 31.62 167.274 31.5 166.447 31.26C165.647 31.02 165.02 30.6467 164.567 30.14C164.114 29.6067 163.887 28.94 163.887 28.14C163.887 27.02 164.327 26.0333 165.207 25.18C166.087 24.3267 167.394 23.5267 169.127 22.78L169.527 23.1C169.02 23.42 168.54 23.7667 168.087 24.14C167.66 24.4867 167.447 24.94 167.447 25.5C167.447 26.3533 167.98 26.78 169.047 26.78H173.407C174.874 26.78 176.18 26.9533 177.327 27.3C178.5 27.6467 179.42 28.22 180.087 29.02C180.78 29.7933 181.127 30.8067 181.127 32.06C181.127 33.3667 180.7 34.58 179.847 35.7C179.02 36.82 177.74 37.7133 176.007 38.38C174.274 39.0733 172.074 39.42 169.407 39.42ZM169.807 23.38C168.287 23.38 166.927 23.1533 165.727 22.7C164.527 22.2467 163.58 21.5533 162.887 20.62C162.194 19.6867 161.847 18.4867 161.847 17.02C161.847 15.5533 162.194 14.3533 162.887 13.42C163.58 12.46 164.527 11.7667 165.727 11.34C166.927 10.8867 168.287 10.66 169.807 10.66C171.327 10.66 172.687 10.8867 173.887 11.34C175.087 11.7667 176.034 12.46 176.727 13.42C177.42 14.3533 177.767 15.5533 177.767 17.02C177.767 18.4867 177.42 19.6867 176.727 20.62C176.034 21.5533 175.087 22.2467 173.887 22.7C172.687 23.1533 171.327 23.38 169.807 23.38ZM169.807 22.66C170.527 22.66 171.087 22.26 171.487 21.46C171.887 20.6333 172.087 19.1533 172.087 17.02C172.087 14.8867 171.887 13.42 171.487 12.62C171.087 11.7933 170.527 11.38 169.807 11.38C169.114 11.38 168.554 11.7933 168.127 12.62C167.727 13.42 167.527 14.8867 167.527 17.02C167.527 19.1533 167.727 20.6333 168.127 21.46C168.554 22.26 169.114 22.66 169.807 22.66ZM176.047 14.1L175.247 13.82C175.647 12.78 176.287 11.9133 177.167 11.22C178.074 10.5267 179.047 10.18 180.087 10.18C180.94 10.18 181.58 10.42 182.007 10.9C182.46 11.3533 182.687 11.9533 182.687 12.7C182.687 13.5 182.474 14.1 182.047 14.5C181.62 14.8733 181.14 15.06 180.607 15.06C180.154 15.06 179.727 14.9 179.327 14.58C178.954 14.26 178.74 13.78 178.687 13.14C178.634 12.4733 178.86 11.62 179.367 10.58L179.647 10.82C178.634 11.1933 177.874 11.6333 177.367 12.14C176.86 12.62 176.42 13.2733 176.047 14.1Z" fill="#1E293B"/>
<path d="M149.35 10.66C151.296 10.66 153.003 11.02 154.47 11.74C155.936 12.46 157.083 13.62 157.91 15.22C158.736 16.82 159.15 18.94 159.15 21.58C159.15 24.22 158.736 26.34 157.91 27.94C157.083 29.5134 155.936 30.66 154.47 31.38C153.003 32.1 151.296 32.46 149.35 32.46C147.456 32.46 145.763 32.1 144.27 31.38C142.803 30.66 141.643 29.5134 140.79 27.94C139.963 26.34 139.55 24.22 139.55 21.58C139.55 18.94 139.963 16.82 140.79 15.22C141.643 13.62 142.803 12.46 144.27 11.74C145.763 11.02 147.456 10.66 149.35 10.66ZM149.35 11.46C148.283 11.46 147.39 12.26 146.67 13.86C145.95 15.4334 145.59 18.0067 145.59 21.58C145.59 25.1534 145.95 27.7267 146.67 29.3C147.39 30.8734 148.283 31.66 149.35 31.66C150.443 31.66 151.336 30.8734 152.03 29.3C152.75 27.7267 153.11 25.1534 153.11 21.58C153.11 18.0067 152.75 15.4334 152.03 13.86C151.336 12.26 150.443 11.46 149.35 11.46Z" fill="#1E293B"/>
<path d="M135.158 0.580017V28.18C135.158 29.3 135.345 30.06 135.718 30.46C136.118 30.86 136.785 31.06 137.718 31.06V31.9C137.212 31.8734 136.452 31.8467 135.438 31.82C134.425 31.7667 133.398 31.74 132.358 31.74C131.318 31.74 130.265 31.7667 129.198 31.82C128.158 31.8467 127.372 31.8734 126.838 31.9V31.06C127.772 31.06 128.425 30.86 128.798 30.46C129.198 30.06 129.398 29.3 129.398 28.18V5.38002C129.398 4.18002 129.212 3.30002 128.838 2.74002C128.492 2.15335 127.825 1.86002 126.838 1.86002V1.02002C127.692 1.10002 128.518 1.14002 129.318 1.14002C130.412 1.14002 131.452 1.10002 132.438 1.02002C133.425 0.913352 134.332 0.766685 135.158 0.580017Z" fill="#1E293B"/>
<path d="M115.092 10.66C117.039 10.66 118.745 11.02 120.212 11.74C121.679 12.46 122.825 13.62 123.652 15.22C124.479 16.82 124.892 18.94 124.892 21.58C124.892 24.22 124.479 26.34 123.652 27.94C122.825 29.5134 121.679 30.66 120.212 31.38C118.745 32.1 117.039 32.46 115.092 32.46C113.199 32.46 111.505 32.1 110.012 31.38C108.545 30.66 107.385 29.5134 106.532 27.94C105.705 26.34 105.292 24.22 105.292 21.58C105.292 18.94 105.705 16.82 106.532 15.22C107.385 13.62 108.545 12.46 110.012 11.74C111.505 11.02 113.199 10.66 115.092 10.66ZM115.092 11.46C114.025 11.46 113.132 12.26 112.412 13.86C111.692 15.4334 111.332 18.0067 111.332 21.58C111.332 25.1534 111.692 27.7267 112.412 29.3C113.132 30.8734 114.025 31.66 115.092 31.66C116.185 31.66 117.079 30.8734 117.772 29.3C118.492 27.7267 118.852 25.1534 118.852 21.58C118.852 18.0067 118.492 15.4334 117.772 13.86C117.079 12.26 116.185 11.46 115.092 11.46Z" fill="#1E293B"/>
<path d="M95.0817 10.66C96.2017 10.66 97.1083 10.8067 97.8017 11.1C98.5217 11.3667 99.0817 11.74 99.4817 12.22C99.9083 12.7267 100.215 13.38 100.402 14.18C100.615 14.98 100.722 16.06 100.722 17.42V28.18C100.722 29.3 100.908 30.06 101.282 30.46C101.682 30.86 102.348 31.06 103.282 31.06V31.9C102.775 31.8734 102.015 31.8467 101.002 31.82C99.9883 31.7667 98.9883 31.74 98.0017 31.74C96.9883 31.74 95.9883 31.7667 95.0017 31.82C94.0417 31.8467 93.3083 31.8734 92.8017 31.9V31.06C93.6017 31.06 94.1617 30.86 94.4817 30.46C94.8017 30.06 94.9617 29.3 94.9617 28.18V15.74C94.9617 15.0734 94.895 14.5 94.7617 14.02C94.6283 13.5134 94.3883 13.1267 94.0417 12.86C93.695 12.5667 93.175 12.42 92.4817 12.42C91.7617 12.42 91.095 12.62 90.4817 13.02C89.895 13.42 89.415 13.98 89.0417 14.7C88.695 15.3934 88.5217 16.18 88.5217 17.06V28.18C88.5217 29.3 88.6817 30.06 89.0017 30.46C89.3483 30.86 89.9083 31.06 90.6817 31.06V31.9C90.2017 31.8734 89.495 31.8467 88.5617 31.82C87.655 31.7667 86.7083 31.74 85.7217 31.74C84.7083 31.74 83.6683 31.7667 82.6017 31.82C81.535 31.8467 80.735 31.8734 80.2017 31.9V31.06C81.135 31.06 81.7883 30.86 82.1617 30.46C82.5617 30.06 82.7617 29.3 82.7617 28.18V15.58C82.7617 14.38 82.575 13.5 82.2017 12.94C81.855 12.3534 81.1883 12.06 80.2017 12.06V11.22C81.055 11.3 81.8817 11.34 82.6817 11.34C83.8017 11.34 84.8417 11.3 85.8017 11.22C86.7883 11.1134 87.695 10.9667 88.5217 10.78V14.38C89.1883 13.02 90.095 12.06 91.2417 11.5C92.3883 10.94 93.6683 10.66 95.0817 10.66Z" fill="#1E293B"/>
<path d="M63.9858 0.619995V14.38C64.6524 12.9933 65.5458 12.0333 66.6658 11.5C67.8124 10.94 69.0924 10.66 70.5058 10.66C71.6524 10.66 72.5724 10.8067 73.2658 11.1C73.9591 11.3667 74.5058 11.74 74.9058 12.22C75.3591 12.7267 75.6791 13.38 75.8658 14.18C76.0791 14.98 76.1858 16.06 76.1858 17.42V28.18C76.1858 29.3 76.3724 30.06 76.7458 30.46C77.1458 30.86 77.8124 31.06 78.7458 31.06V31.9C78.2391 31.8733 77.4658 31.8467 76.4258 31.82C75.4124 31.7667 74.4258 31.74 73.4658 31.74C72.4258 31.74 71.4124 31.7667 70.4258 31.82C69.4658 31.8467 68.7458 31.8733 68.2658 31.9V31.06C69.0658 31.06 69.6258 30.86 69.9458 30.46C70.2658 30.06 70.4258 29.3 70.4258 28.18V15.74C70.4258 15.0733 70.3591 14.5 70.2258 14.02C70.0924 13.5133 69.8391 13.1267 69.4658 12.86C69.1191 12.5667 68.6124 12.42 67.9458 12.42C67.2258 12.42 66.5591 12.62 65.9458 13.02C65.3591 13.3933 64.8791 13.9267 64.5058 14.62C64.1591 15.3133 63.9858 16.1133 63.9858 17.02V28.18C63.9858 29.3 64.1458 30.06 64.4658 30.46C64.7858 30.86 65.3458 31.06 66.1458 31.06V31.9C65.6658 31.8733 64.9591 31.8467 64.0258 31.82C63.0924 31.7667 62.1458 31.74 61.1858 31.74C60.1458 31.74 59.0924 31.7667 58.0258 31.82C56.9858 31.8467 56.1991 31.8733 55.6658 31.9V31.06C56.5991 31.06 57.2524 30.86 57.6258 30.46C58.0258 30.06 58.2258 29.3 58.2258 28.18V5.42C58.2258 4.22 58.0391 3.34 57.6658 2.78C57.3191 2.19333 56.6524 1.9 55.6658 1.9V1.06C56.5191 1.14 57.3458 1.18 58.1458 1.18C59.2391 1.18 60.2791 1.14 61.2658 1.06C62.2524 0.95333 63.1591 0.806663 63.9858 0.619995Z" fill="#1E293B"/>
<path d="M46.422 10.66C47.462 10.66 48.4086 10.78 49.262 11.02C50.142 11.2334 50.862 11.5134 51.422 11.86C52.1153 12.2867 52.6486 12.82 53.022 13.46C53.422 14.0734 53.622 14.7934 53.622 15.62C53.622 16.5534 53.3286 17.3267 52.742 17.94C52.1553 18.5267 51.3953 18.82 50.462 18.82C49.5286 18.82 48.782 18.5534 48.222 18.02C47.662 17.4867 47.382 16.7667 47.382 15.86C47.382 15.0067 47.6486 14.3 48.182 13.74C48.7153 13.1534 49.3286 12.7667 50.022 12.58C49.8086 12.3134 49.4886 12.0867 49.062 11.9C48.6353 11.7134 48.1553 11.62 47.622 11.62C46.7953 11.62 46.062 11.86 45.422 12.34C44.8086 12.82 44.2886 13.4867 43.862 14.34C43.4353 15.1934 43.102 16.1934 42.862 17.34C42.6486 18.4867 42.542 19.74 42.542 21.1C42.542 23.1534 42.7953 24.7667 43.302 25.94C43.8353 27.1134 44.502 27.94 45.302 28.42C46.1286 28.9 46.982 29.14 47.862 29.14C48.3686 29.14 48.9153 29.06 49.502 28.9C50.1153 28.74 50.7286 28.42 51.342 27.94C51.982 27.46 52.5686 26.78 53.102 25.9L53.782 26.14C53.4886 27.1267 53.0086 28.1134 52.342 29.1C51.6753 30.0867 50.8086 30.9 49.742 31.54C48.6753 32.1534 47.3686 32.46 45.822 32.46C44.0886 32.46 42.5153 32.0867 41.102 31.34C39.7153 30.5667 38.5953 29.3934 37.742 27.82C36.9153 26.22 36.502 24.1667 36.502 21.66C36.502 19.26 36.9286 17.2467 37.782 15.62C38.662 13.9667 39.8486 12.7267 41.342 11.9C42.8353 11.0734 44.5286 10.66 46.422 10.66Z" fill="#1E293B"/>
<path d="M26.1857 10.66C28.5324 10.66 30.3724 11.3534 31.7057 12.74C33.0391 14.1267 33.7057 16.3934 33.7057 19.54H20.5457L20.4657 18.78H28.6657C28.6924 17.4734 28.6124 16.2734 28.4257 15.18C28.2391 14.06 27.9457 13.1667 27.5457 12.5C27.1457 11.8334 26.6124 11.5 25.9457 11.5C25.0124 11.5 24.2124 12.0867 23.5457 13.26C22.9057 14.4334 22.5191 16.38 22.3857 19.1L22.5057 19.34C22.4791 19.66 22.4524 19.9934 22.4257 20.34C22.4257 20.6867 22.4257 21.0467 22.4257 21.42C22.4257 23.26 22.6791 24.7534 23.1857 25.9C23.7191 27.0467 24.3857 27.8867 25.1857 28.42C25.9857 28.9267 26.7991 29.18 27.6257 29.18C28.1857 29.18 28.7591 29.1 29.3457 28.94C29.9591 28.7534 30.5724 28.4334 31.1857 27.98C31.7991 27.5 32.3724 26.8334 32.9057 25.98L33.6257 26.22C33.3057 27.2334 32.7991 28.22 32.1057 29.18C31.4124 30.14 30.5324 30.9267 29.4657 31.54C28.3991 32.1534 27.1191 32.46 25.6257 32.46C23.8124 32.46 22.2124 32.0734 20.8257 31.3C19.4391 30.5267 18.3457 29.3534 17.5457 27.78C16.7724 26.2067 16.3857 24.2067 16.3857 21.78C16.3857 19.3 16.7991 17.2334 17.6257 15.58C18.4791 13.9267 19.6391 12.7 21.1057 11.9C22.5991 11.0734 24.2924 10.66 26.1857 10.66Z" fill="#1E293B"/>
<path d="M10.0795 4.66003V11.22H14.7995V12.02H10.0795V28.18C10.0795 28.98 10.2261 29.5534 10.5195 29.9C10.8128 30.22 11.2528 30.38 11.8395 30.38C12.3195 30.38 12.7995 30.2067 13.2795 29.86C13.7595 29.4867 14.1861 28.86 14.5595 27.98L15.2395 28.34C14.8128 29.54 14.1595 30.5267 13.2795 31.3C12.4261 32.0734 11.2528 32.46 9.75947 32.46C8.87947 32.46 8.10614 32.34 7.43947 32.1C6.77281 31.8867 6.21281 31.5534 5.75947 31.1C5.17281 30.5134 4.78614 29.7934 4.59947 28.94C4.41281 28.06 4.31947 26.9267 4.31947 25.54V12.02H0.959473V11.22H4.31947V5.94003C5.43947 5.94003 6.46614 5.8467 7.39947 5.66004C8.35947 5.4467 9.25281 5.11337 10.0795 4.66003Z" fill="#1E293B"/>
</svg>
